<?xml version="1.0" encoding="utf-8"?>
<!-- Generator: Adobe Illustrator 15.1.0, SVG Export Plug-In . SVG Version: 6.00 Build 0)  -->
<!DOCTYPE svg PUBLIC "-//W3C//DTD SVG 1.1//EN" "http://www.w3.org/Graphics/SVG/1.1/DTD/svg11.dtd">
<svg version="1.1" id="レイヤー_1" xmlns="http://www.w3.org/2000/svg" xmlns:xlink="http://www.w3.org/1999/xlink" x="0px"
	 y="0px" width="304px" height="61px" viewBox="0 0 304 61" enable-background="new 0 0 304 61" xml:space="preserve">
<path fill="#FFFFFF" d="M36.141,37.203c0,0.227-0.031,0.443-0.079,0.661c-0.133,0.565-0.435,1.065-0.845,1.456
	c-0.032,0.031-0.063,0.058-0.095,0.084c-0.115,0.098-0.243,0.186-0.371,0.265l1.084,3.896v0.009
	c0.026,0.089,0.044,0.178,0.044,0.271c0,0.535-0.435,0.965-0.965,0.965H31.56c-0.531,0-0.965-0.429-0.965-0.965
	c0-0.093,0.018-0.182,0.043-0.271c0,0,0-0.005,0.004-0.009l1.085-3.896c-0.088-0.053-0.181-0.118-0.266-0.187
	c-0.035-0.021-0.075-0.058-0.106-0.078c-0.465-0.399-0.797-0.938-0.938-1.551c-0.054-0.213-0.071-0.434-0.071-0.651
	c0-1.095,0.594-2.038,1.488-2.527c0.062-0.04,0.132-0.075,0.203-0.106c0.362-0.172,0.771-0.262,1.194-0.262
	c0.427,0,0.82,0.09,1.174,0.248c0.014,0,0.02,0,0.022-0.005c0,0.005,0,0.017,0,0.019c1.001,0.453,1.702,1.464,1.702,2.636
	L36.141,37.203L36.141,37.203z"/>
<path fill="#1F92FC" d="M49.623,32.908c0,2.396-1.088,4.539-2.804,5.953l-1.506,1.234l-9.057,7.463l-0.036,0.021
	c-0.828,0.679-1.892,1.09-3.047,1.09c-1.156,0-2.188-0.394-3.008-1.054l-0.111-0.09l-9.026-7.432l-1.359-1.115l-0.02-0.021
	l-0.221-0.179l-0.049-0.04c-1.271-1.104-2.184-2.622-2.521-4.349c0.248,1.182,0.931,2.204,1.869,2.896
	c0.801,0.589,1.781,0.934,2.853,0.934s2.14-0.376,2.955-1.01l0.013-0.015l0.178-0.146l0.012-0.013l0.218-0.178l3.866-3.187
	l3.119-2.567l1.231-1.006l3.68-3.028l0.055-0.045l0.209-0.173l0.025-0.018c0.899-0.712,1.958-1.227,3.118-1.474
	c-0.067-0.306-0.151-0.603-0.251-0.891c-0.183-0.509-0.408-1-0.688-1.461c-0.025-0.036-0.048-0.071-0.074-0.116
	c-0.04-0.062-0.08-0.138-0.128-0.199c-0.035-0.058-0.08-0.111-0.116-0.164c-2.264-3.273-6.04-5.416-10.319-5.416
	c-1.67,0-3.264,0.328-4.721,0.921c2.254-2.206,5.35-3.57,8.756-3.57c4.863,0,9.08,2.772,11.161,6.821
	c0.728,1.408,1.19,2.98,1.33,4.637C47.821,27.167,49.623,29.825,49.623,32.908L49.623,32.908z M36.062,37.864
	c0.048-0.22,0.079-0.435,0.079-0.661c0-1.172-0.7-2.184-1.701-2.635c0-0.004,0-0.014,0-0.02c-0.003,0.006-0.008,0.006-0.021,0.006
	c-0.354-0.158-0.757-0.248-1.173-0.248c-0.417,0-0.833,0.09-1.196,0.262c-0.071,0.029-0.142,0.065-0.204,0.104
	c-0.895,0.492-1.488,1.435-1.488,2.528c0,0.219,0.019,0.439,0.072,0.652c0.14,0.61,0.474,1.149,0.938,1.549
	c0.03,0.021,0.07,0.06,0.105,0.08c0.083,0.066,0.177,0.134,0.266,0.186l-1.086,3.896l-0.005,0.008
	c-0.025,0.089-0.043,0.178-0.043,0.271c0,0.535,0.435,0.966,0.965,0.966h3.354c0.533,0,0.967-0.43,0.967-0.966
	c0-0.093-0.019-0.182-0.045-0.271c0,0,0-0.006,0-0.008l-1.084-3.896c0.128-0.079,0.257-0.168,0.371-0.266
	c0.032-0.025,0.063-0.053,0.095-0.084c0.411-0.389,0.712-0.892,0.845-1.455L36.062,37.864L36.062,37.864z"/>
<path fill="#434040" d="M39.002,22.536c-1.399-1.962-3.693-3.238-6.285-3.238c-3.645,0-6.705,2.529-7.506,5.93
	c1.537,0.151,2.94,0.757,4.079,1.679l0.102,0.084l3.782,3.113l-1.231,1.005l-3.118,2.568l-3.867,3.187c0,0-0.01-0.005-0.01-0.011
	c-0.069,0.067-0.136,0.129-0.207,0.188l-0.013,0.014L24.551,37.2l-0.013,0.014c-0.814,0.634-1.844,1.011-2.954,1.011
	c-1.111,0-2.05-0.346-2.853-0.935c-0.938-0.69-1.622-1.715-1.869-2.896c-0.013-0.056-0.021-0.106-0.031-0.175
	c-0.008-0.038-0.019-0.089-0.021-0.128c-0.031-0.199-0.054-0.398-0.066-0.599c-0.02-0.188-0.022-0.386-0.022-0.585
	c0-2.692,1.378-5.066,3.468-6.444c0.142-3.299,1.563-6.267,3.773-8.423c1.458-0.594,3.051-0.921,4.721-0.921
	C32.962,17.119,36.74,19.262,39.002,22.536L39.002,22.536z"/>
<path fill="#3D4451" d="M287.605,42.363v3.479H270.34V17.289h16.581v3.48h-12.572v8.936h10.227v3.48h-10.227v9.178H287.605z"/>
<path fill="#3D4451" d="M262.733,38.928l2.146,2.867c0,0-3.916,4.53-11.08,4.53c-8.578,0-14.602-6.55-14.602-14.927
	c0-8.375,6.226-14.601,14.517-14.601c6.876,0,10.396,3.761,10.396,3.761l-1.979,2.991c0,0-3.313-3.116-8.252-3.116
	c-6.389,0-10.554,4.856-10.554,10.917s4.242,11.291,10.601,11.291c5.377,0,8.811-3.725,8.811-3.725v0.009L262.733,38.928
	L262.733,38.928z"/>
<path fill="#3D4451" d="M226.649,17.289l10.272,28.555h-4.165l-2.875-8.213h-10.753l-2.829,8.213h-4.126l10.271-28.555H226.649
	L226.649,17.289z M228.84,34.313l-3.155-9.06c-0.479-1.453-1.087-4.04-1.087-4.04h-0.086c0,0-0.645,2.587-1.126,4.04l-3.194,9.06
	h8.656H228.84z"/>
<path fill="#3D4451" d="M201.614,17.289c5.217,0,8.982,3.52,8.982,8.943c0,5.424-3.761,9.06-8.982,9.06h-6.434v10.56h-4.001V17.297
	h10.435V17.289L201.614,17.289z M206.509,26.232c0-3.442-2.098-5.462-5.501-5.462h-5.828v11.042h5.789
	C204.411,31.811,206.509,29.667,206.509,26.232L206.509,26.232z"/>
<path fill="#3D4451" d="M184.87,19.674l-1.819,3.318c0,0-2.626-2.471-6.271-2.471c-3.035,0-5.175,1.904-5.175,4.172
	c0,5.905,13.831,4.328,13.831,13.583c0,4.414-3.396,8.051-9.06,8.051c-6.063,0-9.464-3.762-9.464-3.762l2.269-3.029
	c0,0,3.038,3.076,7.28,3.076c2.666,0,4.934-1.5,4.934-4.211c0-6.187-13.83-4.856-13.83-13.628c0-4.452,3.838-7.964,9.226-7.964
	c5.384,0,8.088,2.875,8.088,2.875L184.87,19.674z"/>
<path fill="#1F92FC" d="M165.01,17.289v3.48h-9.791v25.074h-4.001V20.77h-9.79v-3.48L165.01,17.289L165.01,17.289z"/>
<path fill="#1F92FC" d="M138.793,19.674l-1.818,3.318c0,0-2.626-2.471-6.27-2.471c-3.038,0-5.178,1.904-5.178,4.172
	c0,5.905,13.841,4.328,13.841,13.583c0,4.414-3.396,8.051-9.062,8.051c-6.068,0-9.464-3.762-9.464-3.762l2.269-3.029
	c0,0,3.03,3.076,7.272,3.076c2.673,0,4.934-1.5,4.934-4.211c0-6.187-13.829-4.856-13.829-13.628c0-4.452,3.84-7.964,9.225-7.964
	c5.384,0,8.088,2.875,8.088,2.875L138.793,19.674z"/>
<path fill="#1F92FC" d="M102.554,16.807c8.252,0,14.639,6.356,14.639,14.561s-6.387,14.965-14.639,14.965
	s-14.685-6.55-14.685-14.965S94.302,16.807,102.554,16.807z M113.067,31.368c0-6.231-4.685-10.917-10.513-10.917
	c-5.827,0-10.559,4.686-10.559,10.917c0,6.231,4.729,11.29,10.559,11.29S113.067,37.802,113.067,31.368z"/>
<path fill="#1F92FC" d="M75.694,17.289c5.215,0,8.981,3.52,8.981,8.943c0,5.424-3.761,9.06-8.981,9.06H69.26v10.56h-4.002V17.297
	h10.436V17.289z M80.588,26.232c0-3.442-2.105-5.462-5.501-5.462H69.26v11.042h5.788C78.483,31.811,80.588,29.667,80.588,26.232z"/>
</svg>
