<svg width="223" height="31" viewBox="0 0 223 31" fill="none" xmlns="http://www.w3.org/2000/svg">
<path d="M222.605 26.3626V29.8436H205.34V1.28882H221.921V4.76978H209.349V13.7053H219.574V17.1863H209.349V26.3626H222.605Z" fill="#3D4451"/>
<path d="M197.733 22.9283L199.877 25.7954C199.877 25.7954 195.961 30.3254 188.797 30.3254C180.219 30.3254 174.198 23.7752 174.198 15.3992C174.198 7.02309 180.421 0.799316 188.712 0.799316C195.588 0.799316 199.108 4.56 199.108 4.56L197.127 7.55144C197.127 7.55144 193.817 4.43569 188.875 4.43569C182.488 4.43569 178.323 9.29193 178.323 15.3525C178.323 21.4131 182.566 26.6424 188.922 26.6424C194.299 26.6424 197.733 22.9205 197.733 22.9205V22.9283Z" fill="#3D4451"/>
<path d="M161.649 1.28882L171.921 29.8436H167.756L164.881 21.6307H154.128L151.299 29.8436H147.173L157.445 1.28882H161.649V1.28882ZM163.84 18.3129L160.685 9.25306C160.204 7.80007 159.598 5.21267 159.598 5.21267H159.512C159.512 5.21267 158.867 7.80007 158.386 9.25306L155.192 18.3129H163.848H163.84Z" fill="#3D4451"/>
<path d="M136.614 1.28882C141.828 1.28882 145.596 4.80863 145.596 10.2321C145.596 15.6556 141.835 19.2919 136.614 19.2919H130.18V29.8514H126.179V1.29658H136.614V1.28882ZM141.509 10.2321C141.509 6.78998 139.411 4.76978 136.008 4.76978H130.18V15.811H135.969C139.411 15.811 141.509 13.6664 141.509 10.2321V10.2321Z" fill="#3D4451"/>
<path d="M119.87 3.67414L118.051 6.99195C118.051 6.99195 115.425 4.52108 111.781 4.52108C108.743 4.52108 106.606 6.42472 106.606 8.69356C106.606 14.5988 120.437 13.0215 120.437 22.2755C120.437 26.6889 117.041 30.3253 111.377 30.3253C105.316 30.3253 101.913 26.5646 101.913 26.5646L104.182 23.5343C104.182 23.5343 107.22 26.6112 111.462 26.6112C114.128 26.6112 116.396 25.1116 116.396 22.3999C116.396 16.2149 102.566 17.5436 102.566 8.77126C102.566 4.31905 106.404 0.807007 111.789 0.807007C117.173 0.807007 119.877 3.68192 119.877 3.68192L119.87 3.67414Z" fill="#3D4451"/>
<path d="M100.01 1.28882V4.76978H90.2193V29.8436H86.2177V4.76978H76.4276V1.28882H100.01Z" fill="#1F92FC"/>
<path d="M73.7935 3.67414L71.9753 6.99195C71.9753 6.99195 69.349 4.52108 65.7049 4.52108C62.6668 4.52108 60.5301 6.42472 60.5301 8.69356C60.5301 14.5988 74.3685 13.0215 74.3685 22.2755C74.3685 26.6889 70.973 30.3253 65.3087 30.3253C59.2403 30.3253 55.8448 26.5646 55.8448 26.5646L58.1136 23.5343C58.1136 23.5343 61.1439 26.6112 65.3863 26.6112C68.0592 26.6112 70.3203 25.1116 70.3203 22.3999C70.3203 16.2149 56.4897 17.5436 56.4897 8.77126C56.4897 4.31905 60.328 0.807007 65.7127 0.807007C71.0973 0.807007 73.8013 3.68192 73.8013 3.68192L73.7935 3.67414Z" fill="#1F92FC"/>
<path d="M37.5542 0.807007C45.8059 0.807007 52.1929 7.16289 52.1929 15.368C52.1929 23.5731 45.8059 30.333 37.5542 30.333C29.3024 30.333 22.8689 23.7829 22.8689 15.368C22.8689 6.9531 29.3024 0.807007 37.5542 0.807007ZM48.067 15.368C48.067 9.13647 43.3817 4.45114 37.5542 4.45114C31.7267 4.45114 26.9948 9.13647 26.9948 15.368C26.9948 21.5996 31.7267 26.6578 37.5542 26.6578C43.3817 26.6578 48.067 21.8016 48.067 15.368Z" fill="#1F92FC"/>
<path d="M10.6933 1.28882C15.9069 1.28882 19.6754 4.80863 19.6754 10.2321C19.6754 15.6556 15.9147 19.2919 10.6933 19.2919H4.25972V29.8514H0.258148V1.29658H10.6933V1.28882ZM15.5884 10.2321C15.5884 6.78998 13.4827 4.76978 10.0872 4.76978H4.25972V15.811H10.0484C13.4827 15.811 15.5884 13.6664 15.5884 10.2321Z" fill="#1F92FC"/>
</svg>
